# xmcd CD database file
#
# Track frame offsets:
#	183
#	36395
#	65258
#	98208
#	127158
#	147283
#	161558
#	189183
#
# Disc length: 2917 seconds
#
# Revision: 0
# Processed by: cddbd v1.5.2PL0 Copyright (c) Steve Scherf et al.
# Submitted via: CDex 1.51
#
DISCID=6e0b6308
DTITLE=Fasoli Claudio, Goodrick Mick, Danielsson Palle, Oxley Tony - Bodies
DYEAR=1990
DGENRE=Jazz
TTITLE0=Legs
TTITLE1=Belly
TTITLE2=Hair
TTITLE3=Navel
TTITLE4=Neck
TTITLE5=Lips
TTITLE6=Hands
TTITLE7=Eyes
EXTD=YEAR: 1990
EXTT0=
EXTT1=
EXTT2=
EXTT3=
EXTT4=
EXTT5=
EXTT6=
EXTT7=
PLAYORDER=
